<svg xmlns="http://www.w3.org/2000/svg" viewBox="0 0 320 120" fill="none">
  <!-- Flame/leaf icon -->
  <g transform="translate(0,4)">
    <!-- Outer arc (orange) -->
    <path d="M 62 8 A 50 50 0 0 1 100 95" stroke="#F26A21" stroke-width="4" stroke-linecap="round" fill="none"/>
    <!-- Flame shape (dark) -->
    <path d="M30 95 C30 95 18 70 28 52 C34 42 38 36 36 24 C36 24 48 34 46 52 C50 42 54 30 52 14 C52 14 72 32 68 56 C74 44 76 36 74 22 C74 22 90 40 84 62 C88 54 90 44 88 34 C88 34 102 54 96 76 C100 68 100 60 98 52 C98 52 108 68 104 84 C108 80 110 74 110 68 C110 68 116 80 112 92 C114 88 116 84 116 80 C116 80 120 88 116 96 L30 96 Z" fill="#3A3A3A"/>
  </g>
  <!-- dim text -->
  <text x="132" y="82" font-family="'Inter', sans-serif" font-weight="700" font-size="58" fill="#3A3A3A" letter-spacing="-2">dim</text>
</svg>
